<svg width="20" height="21" viewBox="0 0 20 21" fill="none" xmlns="http://www.w3.org/2000/svg">
<path fill-rule="evenodd" clip-rule="evenodd" d="M17.7817 0.90387H2.53517C1.33722 0.90387 0.357086 1.88401 0.357086 3.08195V18.3285C0.357086 19.5265 1.33722 20.5066 2.53517 20.5066H17.7817C18.9797 20.5066 19.9598 19.5265 19.9598 18.3285V3.08195C19.9598 1.88401 18.9797 0.90387 17.7817 0.90387ZM16.6927 5.80452H11.2475V7.9826H16.6927V5.80452ZM16.6927 13.4278H11.2475V15.6059H16.6927V13.4278ZM2.53516 18.3285H17.7817V3.08194H2.53516V18.3285ZM9.06941 4.17096H3.62421V9.61616H9.06941V4.17096ZM4.71326 8.5271H7.98038V5.25998H4.71326V8.5271ZM9.06941 11.7942H3.62421V17.2394H9.06941V11.7942ZM4.71326 16.1504H7.98038V12.8833H4.71326V16.1504Z" fill="white"/>
</svg>
